# xmcd
#
# Track frame offsets:
#	150
#	19465
#	31562
#	50051
#	62564
#	84342
#	99032
#	120625
#	140331
#	152504
#	170253
#	185368
#	208503
#	223774
#
# Disc length: 3452 seconds
#
# Revision: 1
# Processed by: cddbd v1.5PL3 Copyright (c) Steve Scherf et al.
# Submitted via: audiograbber 1.83.01
#
DISCID=b00d7a0e
DTITLE=Jeff Mezzrow - Mezz Life
DYEAR=1900
DGENRE=Blues
TTITLE0=I just wanna make love to you
TTITLE1=Sugar sweet
TTITLE2=New Orleans
TTITLE3=Round and round
TTITLE4=Ramblin'
TTITLE5=C'mon part one
TTITLE6=True
TTITLE7=Have love will travel
TTITLE8=Steppinout
TTITLE9=Back it up
TTITLE10=Not fade away
TTITLE11=Love is blue
TTITLE12=Rollin' and Tumblin
TTITLE13=Polk salad Annie
EXTD=
EXTT0=
EXTT1=
EXTT2=
EXTT3=
EXTT4=
EXTT5=
EXTT6=
EXTT7=
EXTT8=
EXTT9=
EXTT10=
EXTT11=
EXTT12=
EXTT13=
PLAYORDER=
